<?xml version="1.0" encoding="UTF-8" standalone="no"?>
<!-- Created with Inkscape (http://www.inkscape.org/) -->

<svg
   width="600"
   height="600"
   viewBox="0 0 158.75002 158.75"
   version="1.1"
   id="svg1"
   xml:space="preserve"
   inkscape:version="1.4.2 (f4327f4, 2025-05-13)"
   sodipodi:docname="logo.svg"
   inkscape:export-filename="favicon-16.png"
   inkscape:export-xdpi="2.5599999"
   inkscape:export-ydpi="2.5599999"
   xmlns:inkscape="http://www.inkscape.org/namespaces/inkscape"
   xmlns:sodipodi="http://sodipodi.sourceforge.net/DTD/sodipodi-0.dtd"
   xmlns="http://www.w3.org/2000/svg"
   xmlns:svg="http://www.w3.org/2000/svg"><sodipodi:namedview
     id="namedview1"
     pagecolor="#ffffff"
     bordercolor="#000000"
     borderopacity="0.25"
     inkscape:showpageshadow="2"
     inkscape:pageopacity="0.0"
     inkscape:pagecheckerboard="0"
     inkscape:deskcolor="#d1d1d1"
     inkscape:document-units="mm"
     showgrid="true"
     inkscape:zoom="1.0137283"
     inkscape:cx="245.13472"
     inkscape:cy="260.91804"
     inkscape:window-width="1920"
     inkscape:window-height="991"
     inkscape:window-x="-9"
     inkscape:window-y="-9"
     inkscape:window-maximized="1"
     inkscape:current-layer="layer1"><inkscape:grid
       id="grid1"
       units="mm"
       originx="-33.714252"
       originy="-28.097509"
       spacingx="0.99999998"
       spacingy="1"
       empcolor="#0099e5"
       empopacity="0.30196078"
       color="#0099e5"
       opacity="0.14901961"
       empspacing="5"
       enabled="true"
       visible="true" /></sodipodi:namedview><defs
     id="defs1" /><g
     inkscape:label="Camada 1"
     inkscape:groupmode="layer"
     id="layer1"
     transform="translate(-33.714251,-28.09751)"><path
       id="path1"
       style="fill:#000000;fill-opacity:1;stroke-width:0.263444"
       d="m 112.97154,28.312485 -0.0103,0.261224 -0.008,-0.206202 C 92.355824,48.30973 88.526967,69.696023 95.80238,87.980135 c 5.21192,13.098245 10.1308,18.785775 13.3971,37.971635 2.87776,0 4.87206,-0.0334 7.51074,-0.0334 l -0.001,-0.0221 h 0.0159 c 3.2663,-19.18585 8.18467,-24.87339 13.39658,-37.97163 7.27543,-18.284123 3.44709,-39.669892 -17.1504,-59.612114 z m 47.52647,53.007973 c -19.00049,-0.04849 -38.50953,23.423042 -39.05038,44.653422 l 6.39916,-0.0242 c 9.5666,-19.79721 22.24061,-21.88078 29.11724,-17.53494 5.46426,3.45326 7.27436,10.93617 0.50765,17.43569 22.20929,2.3708 37.00279,-25.78219 15.85967,-40.422403 -4.09119,-2.832879 -8.44861,-4.096409 -12.83334,-4.107599 z m -94.81715,0.15118 c -4.384728,0.0112 -8.742662,1.275234 -12.833849,4.108113 -21.143118,14.640219 -6.349106,42.792699 15.860181,40.421889 -6.766707,-6.49951 -4.956612,-13.98244 0.507649,-17.4357 6.87663,-4.34583 19.550646,-2.26226 29.117242,17.53495 l 6.399157,0.0242 C 104.1904,104.89467 84.681353,81.42315 65.68086,81.471638 Z M 92.592454,130.5453 v 8.77724 h 41.691606 v -8.77724 z m 5.748381,13.73331 c -1.598569,6.06295 -6.738701,9.81957 -11.096719,10.10033 -3.427316,0.22078 -6.176761,-2.40388 -8.026111,-5.09593 -3.216098,6.21212 1.941511,15.29694 11.020521,14.38842 6.754771,-0.67595 13.701694,-8.26048 14.455134,-19.37329 z m 29.531185,0.0823 -6.35334,0.0195 c 0.75344,11.11281 7.70087,18.69732 14.45565,19.37327 9.07901,0.90853 14.23611,-8.1763 11.02001,-14.38842 -1.84935,2.69206 -4.5988,5.31672 -8.02611,5.09593 -4.35802,-0.28075 -9.49765,-4.03737 -11.09621,-10.10033 z m -18.67903,0.0479 c -2.38506,14.65931 -7.94025,21.13113 -13.034635,25.3691 2.841426,2.27346 5.682555,4.27194 8.523975,5.06507 2.96315,5.53547 5.84989,8.97071 8.41637,11.78955 2.56643,-2.81879 5.45332,-6.25424 8.41638,-11.78955 2.84143,-0.79313 5.68306,-2.79161 8.52449,-5.06507 -5.09438,-4.23797 -10.64958,-10.70928 -13.03464,-25.3686 l -3.90571,0.0216 v -5.2e-4 z" /></g></svg>
